<mxfile host="app.diagrams.net" modified="2023-12-23T02:49:17.039Z" agent="Mozilla/5.0 (Windows NT 10.0; Win64; x64) AppleWebKit/537.36 (KHTML, like Gecko) Chrome/120.0.0.0 Safari/537.36" version="22.1.11" etag="0U617bJg_kUoWzUUE6aA" type="github">
  <diagram name="Page-1" id="6-aKhYfTTgYgDf8n7AIH">
    <mxGraphModel>
      <root>
        <mxCell id="0" />
        <mxCell id="1" parent="0" />
      </root>
    </mxGraphModel>
  </diagram>
</mxfile>
